<svg width="15" height="15" viewBox="0 0 15 15" fill="none" xmlns="http://www.w3.org/2000/svg">
<path d="M10.3125 0H4.6875C2.09906 0 0 2.09906 0 4.6875V10.3125C0 12.9009 2.09906 15 4.6875 15H10.3125C12.9009 15 15 12.9009 15 10.3125V4.6875C15 2.09906 12.9009 0 10.3125 0ZM13.5938 10.3125C13.5938 12.1219 12.1219 13.5938 10.3125 13.5938H4.6875C2.87812 13.5938 1.40625 12.1219 1.40625 10.3125V4.6875C1.40625 2.87812 2.87812 1.40625 4.6875 1.40625H10.3125C12.1219 1.40625 13.5938 2.87812 13.5938 4.6875V10.3125Z" fill="#323232"/>
<path d="M7.5 3.75C5.42906 3.75 3.75 5.42906 3.75 7.5C3.75 9.57094 5.42906 11.25 7.5 11.25C9.57094 11.25 11.25 9.57094 11.25 7.5C11.25 5.42906 9.57094 3.75 7.5 3.75ZM7.5 9.84375C6.20812 9.84375 5.15625 8.79187 5.15625 7.5C5.15625 6.20719 6.20812 5.15625 7.5 5.15625C8.79187 5.15625 9.84375 6.20719 9.84375 7.5C9.84375 8.79187 8.79187 9.84375 7.5 9.84375Z" fill="#323232"/>
<path d="M11.5309 3.96846C11.8069 3.96846 12.0306 3.74474 12.0306 3.46877C12.0306 3.1928 11.8069 2.96909 11.5309 2.96909C11.255 2.96909 11.0312 3.1928 11.0312 3.46877C11.0312 3.74474 11.255 3.96846 11.5309 3.96846Z" fill="#323232"/>
</svg>
