<svg width="23" height="20" viewBox="0 0 23 20" fill="none" xmlns="http://www.w3.org/2000/svg">
<g clip-path="url(#clip0)" filter="url(#filter0_d)">
<path d="M18.8663 10.8544C18.826 10.7869 18.5766 10.245 17.3765 9.13119C16.1202 7.96485 16.2889 8.15424 17.8022 6.13753C18.7238 4.90932 19.0923 4.15926 18.9769 3.83861C18.8672 3.53296 18.1894 3.61359 18.1894 3.61359L15.9355 3.62672C15.9355 3.62672 15.7686 3.60422 15.6439 3.67829C15.5229 3.75142 15.4451 3.92018 15.4451 3.92018C15.4451 3.92018 15.0879 4.87087 14.6116 5.67906C13.6075 7.3845 13.2053 7.47451 13.0412 7.36856C12.6596 7.12198 12.7552 6.37661 12.7552 5.84782C12.7552 4.19489 13.0056 3.50577 12.2668 3.32763C12.0211 3.26857 11.8411 3.22919 11.2139 3.22263C10.4094 3.21419 9.72782 3.22544 9.34248 3.41389C9.08558 3.53953 8.88775 3.81986 9.0087 3.8358C9.15777 3.85549 9.4953 3.92674 9.67438 4.17051C9.90595 4.4846 9.89752 5.19152 9.89752 5.19152C9.89752 5.19152 10.0307 7.13698 9.58718 7.37887C9.28247 7.54482 8.86525 7.20636 7.96987 5.65843C7.5114 4.86619 7.1645 3.98956 7.1645 3.98956C7.1645 3.98956 7.09794 3.82642 6.97886 3.73923C6.83448 3.63328 6.63196 3.59953 6.63196 3.59953L4.48868 3.61266C4.48868 3.61266 4.1671 3.62203 4.04896 3.76173C3.94396 3.88643 4.04052 4.14332 4.04052 4.14332C4.04052 4.14332 5.71877 8.06892 7.61829 10.0481C9.36123 11.8623 11.3395 11.7433 11.3395 11.7433H12.2358C12.2358 11.7433 12.5068 11.7133 12.6446 11.5642C12.7721 11.4273 12.7674 11.1704 12.7674 11.1704C12.7674 11.1704 12.7496 9.9675 13.3084 9.7903C13.8587 9.61591 14.5657 10.9529 15.3148 11.4676C15.8811 11.8567 16.3114 11.7714 16.3114 11.7714L18.315 11.7433C18.315 11.7433 19.3632 11.6786 18.8663 10.8544Z" fill="#323232"/>
</g>
<defs>
<filter id="filter0_d" x="0" y="0" width="23" height="23" filterUnits="userSpaceOnUse" color-interpolation-filters="sRGB">
<feFlood flood-opacity="0" result="BackgroundImageFix"/>
<feColorMatrix in="SourceAlpha" type="matrix" values="0 0 0 0 0 0 0 0 0 0 0 0 0 0 0 0 0 0 127 0"/>
<feOffset dy="4"/>
<feGaussianBlur stdDeviation="2"/>
<feColorMatrix type="matrix" values="0 0 0 0 0 0 0 0 0 0 0 0 0 0 0 0 0 0 0.25 0"/>
<feBlend mode="normal" in2="BackgroundImageFix" result="effect1_dropShadow"/>
<feBlend mode="normal" in="SourceGraphic" in2="effect1_dropShadow" result="shape"/>
</filter>
<clipPath id="clip0">
<rect width="15" height="15" fill="white" transform="translate(4)"/>
</clipPath>
</defs>
</svg>
