<svg width="15" height="15" viewBox="0 0 15 15" fill="none" xmlns="http://www.w3.org/2000/svg">
<path fill-rule="evenodd" clip-rule="evenodd" d="M12.4737 2.50505C11.1581 1.1879 9.40843 0.462198 7.54445 0.461426C3.70353 0.461426 0.577574 3.58729 0.576029 7.42925C0.575514 8.6574 0.896349 9.85628 1.50618 10.913L0.517578 14.5239L4.21164 13.5549C5.22951 14.1101 6.37544 14.4027 7.54162 14.4031H7.54454C11.385 14.4031 14.5113 11.2769 14.5128 7.43482C14.5136 5.57281 13.7894 3.82213 12.4737 2.50505ZM7.54445 13.2262H7.54205C6.50281 13.2258 5.48357 12.9465 4.59419 12.4189L4.38279 12.2934L2.19068 12.8684L2.77578 10.7312L2.63803 10.512C2.05824 9.58986 1.75208 8.52402 1.7526 7.42968C1.7538 4.23634 4.35206 1.63834 7.54677 1.63834C9.09378 1.63885 10.548 2.24207 11.6415 3.33684C12.735 4.43161 13.3368 5.88678 13.3363 7.4344C13.3349 10.628 10.7368 13.2262 7.54445 13.2262ZM10.7214 8.88845C10.5473 8.80125 9.69125 8.38016 9.5316 8.32197C9.37213 8.26386 9.25591 8.23494 9.13996 8.40917C9.02383 8.58341 8.6902 8.97566 8.58858 9.09179C8.48696 9.208 8.38551 9.22259 8.21135 9.13539C8.0372 9.04827 7.47621 8.86434 6.81111 8.27116C6.29355 7.80948 5.94414 7.2393 5.84251 7.06507C5.74106 6.89066 5.84166 6.80551 5.9189 6.70973C6.10739 6.47567 6.29613 6.23028 6.35415 6.11415C6.41226 5.99793 6.38316 5.89622 6.33956 5.80911C6.29613 5.72199 5.94791 4.86497 5.80286 4.51624C5.66141 4.17686 5.51799 4.2227 5.41104 4.21738C5.30959 4.21231 5.19346 4.21128 5.07733 4.21128C4.96129 4.21128 4.77263 4.2548 4.61299 4.42921C4.45343 4.60353 4.00368 5.0247 4.00368 5.88172C4.00368 6.73874 4.62758 7.56666 4.71461 7.68288C4.80164 7.79909 5.94242 9.55776 7.68899 10.3119C8.10441 10.4914 8.42868 10.5985 8.68162 10.6787C9.09876 10.8112 9.47822 10.7925 9.77828 10.7477C10.1128 10.6977 10.8083 10.3265 10.9536 9.91979C11.0986 9.51304 11.0986 9.16448 11.055 9.09179C11.0116 9.01917 10.8955 8.97566 10.7214 8.88845Z" fill="#323232"/>
</svg>
