<svg width="15" height="15" viewBox="0 0 15 15" fill="none" xmlns="http://www.w3.org/2000/svg">
<g opacity="0.7" clip-path="url(#clip0)">
<path d="M11.2496 0.00312097L9.30447 0C7.11916 0 5.70692 1.44891 5.70692 3.69148V5.3935H3.75117C3.58217 5.3935 3.44531 5.53051 3.44531 5.69951V8.16555C3.44531 8.33455 3.58232 8.4714 3.75117 8.4714H5.70692V14.694C5.70692 14.863 5.84378 14.9998 6.01278 14.9998H8.56448C8.73348 14.9998 8.87034 14.8628 8.87034 14.694V8.4714H11.1571C11.3261 8.4714 11.4629 8.33455 11.4629 8.16555L11.4639 5.69951C11.4639 5.61837 11.4316 5.54066 11.3743 5.48323C11.317 5.4258 11.239 5.3935 11.1579 5.3935H8.87034V3.95068C8.87034 3.2572 9.03559 2.90515 9.93896 2.90515L11.2493 2.90469C11.4181 2.90469 11.555 2.76768 11.555 2.59883V0.308976C11.555 0.140288 11.4183 0.00343307 11.2496 0.00312097Z" fill="white"/>
</g>
<defs>
<clipPath id="clip0">
<rect width="15" height="14.9998" fill="white"/>
</clipPath>
</defs>
</svg>
