<svg width="23" height="23" viewBox="0 0 23 23" fill="none" xmlns="http://www.w3.org/2000/svg">
<g opacity="0.7" filter="url(#filter0_d)">
<path d="M14.3125 0H8.6875C6.09906 0 4 2.09906 4 4.6875V10.3125C4 12.9009 6.09906 15 8.6875 15H14.3125C16.9009 15 19 12.9009 19 10.3125V4.6875C19 2.09906 16.9009 0 14.3125 0ZM17.5938 10.3125C17.5938 12.1219 16.1219 13.5938 14.3125 13.5938H8.6875C6.87812 13.5938 5.40625 12.1219 5.40625 10.3125V4.6875C5.40625 2.87812 6.87812 1.40625 8.6875 1.40625H14.3125C16.1219 1.40625 17.5938 2.87812 17.5938 4.6875V10.3125Z" fill="white"/>
<path d="M11.5 3.75C9.42906 3.75 7.75 5.42906 7.75 7.5C7.75 9.57094 9.42906 11.25 11.5 11.25C13.5709 11.25 15.25 9.57094 15.25 7.5C15.25 5.42906 13.5709 3.75 11.5 3.75ZM11.5 9.84375C10.2081 9.84375 9.15625 8.79187 9.15625 7.5C9.15625 6.20719 10.2081 5.15625 11.5 5.15625C12.7919 5.15625 13.8438 6.20719 13.8438 7.5C13.8438 8.79187 12.7919 9.84375 11.5 9.84375Z" fill="white"/>
<path d="M15.5314 3.96849C15.8074 3.96849 16.0311 3.74477 16.0311 3.4688C16.0311 3.19283 15.8074 2.96912 15.5314 2.96912C15.2555 2.96912 15.0317 3.19283 15.0317 3.4688C15.0317 3.74477 15.2555 3.96849 15.5314 3.96849Z" fill="white"/>
</g>
<defs>
<filter id="filter0_d" x="0" y="0" width="23" height="23" filterUnits="userSpaceOnUse" color-interpolation-filters="sRGB">
<feFlood flood-opacity="0" result="BackgroundImageFix"/>
<feColorMatrix in="SourceAlpha" type="matrix" values="0 0 0 0 0 0 0 0 0 0 0 0 0 0 0 0 0 0 127 0"/>
<feOffset dy="4"/>
<feGaussianBlur stdDeviation="2"/>
<feColorMatrix type="matrix" values="0 0 0 0 0 0 0 0 0 0 0 0 0 0 0 0 0 0 0.25 0"/>
<feBlend mode="normal" in2="BackgroundImageFix" result="effect1_dropShadow"/>
<feBlend mode="normal" in="SourceGraphic" in2="effect1_dropShadow" result="shape"/>
</filter>
</defs>
</svg>
