<svg width="15" height="15" viewBox="0 0 15 15" fill="none" xmlns="http://www.w3.org/2000/svg">
<g opacity="0.7">
<path d="M8.74998 0.75H6.24999C6.112 0.75 6 0.862002 6 0.99999C6 1.13798 6.112 1.24998 6.24999 1.24998H8.74998C8.88797 1.24998 8.99997 1.13798 8.99997 0.99999C8.99997 0.862002 8.88797 0.75 8.74998 0.75Z" fill="white"/>
<path d="M10.5 0.75H10.25C10.112 0.75 10 0.862002 10 0.99999C10 1.13798 10.112 1.24998 10.25 1.24998H10.5C10.638 1.24998 10.75 1.13798 10.75 0.99999C10.75 0.862002 10.638 0.75 10.5 0.75Z" fill="white"/>
<path d="M7.81048 12.75H7.18974C6.80949 12.75 6.5 13.0595 6.5 13.4397V13.5605C6.5 13.9407 6.80949 14.25 7.1895 14.25H7.81024C8.19049 14.25 8.49998 13.9407 8.49998 13.5605V13.4397C8.49998 13.0595 8.19049 12.75 7.81048 12.75ZM8 13.5605C8 13.665 7.91501 13.75 7.81051 13.75H7.18974C7.085 13.75 6.99998 13.665 6.99998 13.5605V13.4397C6.99998 13.335 7.08497 13.25 7.18974 13.25H7.81024C7.91501 13.25 8 13.335 8 13.4397V13.5605Z" fill="white"/>
<path d="M10.847 0H4.15424C3.65599 0 3.25049 0.405498 3.25049 0.90375V14.0963C3.25049 14.5945 3.65599 15 4.15424 15H10.8467C11.345 15 11.7505 14.5945 11.7505 14.0965V0.90375C11.7505 0.405498 11.345 0 10.847 0ZM11.2505 14.0963C11.2505 14.3188 11.0695 14.5 10.847 14.5H4.15424C3.93149 14.5 3.7505 14.3187 3.7505 14.0965V0.90375C3.7505 0.68124 3.93149 0.50001 4.15424 0.50001H10.8467C11.0695 0.50001 11.2505 0.68127 11.2505 0.90375V14.0963H11.2505Z" fill="white"/>
<path d="M11.5005 1.5H3.50048C3.36249 1.5 3.25049 1.612 3.25049 1.74999V12.25C3.25049 12.388 3.36249 12.5 3.50048 12.5H11.5005C11.6385 12.5 11.7505 12.388 11.7505 12.25V1.74999C11.7505 1.612 11.6385 1.5 11.5005 1.5ZM11.2505 12H3.75047V2.00001H11.2505V12Z" fill="white"/>
</g>
</svg>
