<svg width="15" height="15" viewBox="0 0 15 15" fill="none" xmlns="http://www.w3.org/2000/svg">
<g opacity="0.7" clip-path="url(#clip0)">
<path d="M14.8663 10.8545C14.826 10.787 14.5766 10.2451 13.3765 9.13122C12.1202 7.96488 12.2889 8.15427 13.8022 6.13756C14.7238 4.90935 15.0923 4.15929 14.9769 3.83864C14.8672 3.53299 14.1894 3.61362 14.1894 3.61362L11.9355 3.62675C11.9355 3.62675 11.7686 3.60425 11.6439 3.67832C11.5229 3.75145 11.4451 3.92021 11.4451 3.92021C11.4451 3.92021 11.0879 4.87091 10.6116 5.67909C9.60748 7.38453 9.20526 7.47454 9.04118 7.36859C8.65959 7.12201 8.75523 6.37664 8.75523 5.84785C8.75523 4.19492 9.00556 3.5058 8.26675 3.32767C8.02111 3.2686 7.8411 3.22922 7.21386 3.22266C6.40943 3.21422 5.72782 3.22547 5.34248 3.41392C5.08558 3.53956 4.88775 3.81989 5.0087 3.83583C5.15777 3.85552 5.4953 3.92677 5.67438 4.17054C5.90595 4.48463 5.89752 5.19155 5.89752 5.19155C5.89752 5.19155 6.03065 7.13701 5.58718 7.3789C5.28247 7.54485 4.86525 7.20639 3.96987 5.65846C3.5114 4.86622 3.1645 3.98959 3.1645 3.98959C3.1645 3.98959 3.09794 3.82645 2.97886 3.73926C2.83448 3.63331 2.63196 3.59956 2.63196 3.59956L0.488683 3.61269C0.488683 3.61269 0.167097 3.62206 0.0489629 3.76176C-0.0560448 3.88646 0.0405248 4.14335 0.0405248 4.14335C0.0405248 4.14335 1.71877 8.06895 3.61829 10.0482C5.36123 11.8624 7.3395 11.7433 7.3395 11.7433H8.23581C8.23581 11.7433 8.50677 11.7133 8.64459 11.5642C8.7721 11.4273 8.76741 11.1704 8.76741 11.1704C8.76741 11.1704 8.7496 9.96753 9.30839 9.79033C9.85874 9.61594 10.5657 10.9529 11.3148 11.4676C11.8811 11.8567 12.3114 11.7714 12.3114 11.7714L14.315 11.7433C14.315 11.7433 15.3632 11.6786 14.8663 10.8545Z" fill="white"/>
</g>
<defs>
<clipPath id="clip0">
<rect width="15" height="15" fill="white"/>
</clipPath>
</defs>
</svg>
